:FULLY-SPECIFIED
:FORCE-ALL-JOINTS-BE-3DOF
:DEGREES
510
root -5.10202 15.0366 -42.5504 366.231 -0.389147 345.624
lfemur -54.6906 37.2562 -20.2293
ltibia 72.4724 -0 0
lfoot -17.3823 22.2469 -0.350637
ltoes 3.45247 -0 0
rfemur -21.4535 -22.061 8.50175
rtibia 57.1394 -0 0
rfoot 5.72924 -18.2099 -0.512155
rtoes 8.16033 -0 0
lowerback 15.5077 1.29822 -4.48239
upperback -1.3764 1.23165 3.4034
thorax -10.4396 0.965293 5.99076
lowerneck 4.04658 -15.2619 -16.9138
upperneck 4.45159 -22.283 19.8292
head 4.85479 -11.2052 7.39276
lclavicle -1.57759e-14 -1.03145e-14 3.44804e-31
lhumerus 22.2101 -73.7307 74.7741
lradius 88.5645 -0 0
lwrist 23.8361 0 0
lhand -3.11313 36.785 -0.000768683
lfingers 7.12502 -0 0
lthumb 17.2722 69.1808 -0.513539
rclavicle 1.60972e-14 -1.24434e-14 1.33364e-31
rhumerus 55.2908 42.4909 -26.3043
rradius 107.553 -0 0
rwrist -25.2266 0 0
rhand 0.0788827 -14.7178 -0.0794782
rfingers 7.12502 -0 0
rthumb 30.8007 -51.4578 0.0118376
511
root -5.19425 15.0364 -42.6301 366.197 -2.86245 345.908
lfemur -51.6933 36.3753 -18.4947
ltibia 71.9984 -0 0
lfoot -16.6169 21.5715 -0.306283
ltoes 1.56393 -0 0
rfemur -20.9031 -22.4635 8.12307
rtibia 56.0875 -0 0
rfoot 5.16088 -16.8396 -0.618013
rtoes 7.16389 -0 0
lowerback 15.7849 1.38378 -4.65852
upperback -1.35258 1.29196 3.31163
thorax -10.5842 1.00449 5.97737
lowerneck 3.62346 -14.8781 -16.9079
upperneck 4.71013 -21.6766 19.2974
head 4.82227 -10.8852 7.27883
lclavicle -1.51282e-14 -1.1061e-14 3.36342e-31
lhumerus 19.318 -73.4323 77.0129
lradius 90.0033 -0 0
lwrist 23.9346 0 0
lhand -3.10515 36.588 -0.000665634
lfingers 7.12502 -0 0
lthumb 16.2454 69.9141 -0.540208
rclavicle 1.46838e-14 -1.21143e-14 2.83338e-31
rhumerus 52.1921 43.6151 -28.2164
rradius 106.333 -0 0
rwrist -25.2603 0 0
rhand -0.934799 -14.6025 -0.10806
rfingers 7.12502 -0 0
rthumb 30.6664 -51.5556 0.00927676
512
root -5.28031 15.026 -42.7058 366.203 -5.37375 346.2
lfemur -48.5314 35.3442 -16.7089
ltibia 71.498 -0 0
lfoot -15.9035 20.9421 -0.256788
ltoes -0.379127 0 0
rfemur -20.558 -22.7125 7.88455
rtibia 55.2298 -0 0
rfoot 4.54548 -15.3612 -0.716872
rtoes 6.10299 -0 0
lowerback 16.0591 1.35909 -4.94483
upperback -1.45244 1.19516 3.33732
thorax -10.8503 0.987904 6.20118
lowerneck 3.45964 -14.2981 -17.0473
upperneck 4.87511 -20.8215 18.7612
head 4.69201 -10.4634 7.24165
lclavicle -1.44912e-14 -1.17952e-14 3.1979e-31
lhumerus 14.875 -72.8891 80.4062
lradius 91.4289 -0 0
lwrist 24.028 0 0
lhand -3.09776 36.4056 -0.000545705
lfingers 7.12502 -0 0
lthumb 15.201 70.6601 -0.553846
rclavicle 1.28007e-14 -1.16758e-14 4.70524e-31
rhumerus 49.0303 44.6468 -30.2174
rradius 104.709 -0 0
rwrist -25.2989 0 0
rhand -2.08404 -14.4712 -0.137989
rfingers 7.12502 -0 0
rthumb 30.548 -51.6418 0.00682779
513
root -5.35517 15.0095 -42.7729 366.165 -8.05792 346.579
lfemur -45.2586 34.1633 -14.9138
ltibia 70.9802 -0 0
lfoot -15.2523 20.3677 -0.204727
ltoes -2.35491 0 0
rfemur -20.4387 -22.798 7.80188
rtibia 54.5888 -0 0
rfoot 3.89037 -13.7925 -0.804313
rtoes 4.99374 -0 0
lowerback 16.3042 1.33078 -5.25953
upperback -1.52314 1.08434 3.34054
thorax -11.0643 0.964142 6.42056
lowerneck 3.19546 -13.7049 -17.014
upperneck 5.0953 -19.9217 18.0706
head 4.5561 -10.0131 7.12486
lclavicle -1.38721e-14 -1.25087e-14 2.95881e-31
lhumerus 9.29776 -72.0454 84.5684
lradius 92.8154 -0 0
lwrist 24.1151 0 0
lhand -3.09111 36.2413 -0.000417551
lfingers 7.12502 -0 0
lthumb 14.1507 71.4103 -0.553846
rclavicle 1.05032e-14 -1.11407e-14 6.79383e-31
rhumerus 45.8573 45.5706 -32.2704
rradius 102.726 -0 0
rwrist -25.3416 0 0
rhand -3.35381 -14.3255 -0.167986
rfingers 7.12502 -0 0
rthumb 30.4472 -51.7153 0.0046021
514
root -5.42609 14.9983 -42.8445 366.215 -10.7374 346.962
lfemur -41.9251 32.838 -13.1479
ltibia 70.4537 -0 0
lfoot -14.6736 19.8575 -0.152949
ltoes -4.34159 0 0
rfemur -20.5746 -22.7963 7.81218
rtibia 54.1875 -0 0
rfoot 3.20312 -12.1513 -0.876517
rtoes 3.85226 -0 0
lowerback 16.5944 1.19192 -5.7716
upperback -1.74182 0.792378 3.44599
thorax -11.4497 0.884557 6.92437
lowerneck 3.29212 -12.9447 -16.9808
upperneck 5.27516 -18.8312 17.3052
head 4.31436 -9.49026 7.0321
lclavicle -1.32781e-14 -1.31934e-14 2.6569e-31
lhumerus 3.04911 -70.8508 89.0669
lradius 94.1366 -0 0
lwrist 24.1946 0 0
lhand -3.08533 36.0988 -0.000290896
lfingers 7.12502 -0 0
lthumb 13.1063 72.1563 -0.540208
rclavicle 7.84662e-15 -1.05221e-14 8.94142e-31
rhumerus 42.7319 46.3768 -34.3312
rradius 100.434 -0 0
rwrist -25.3875 0 0
rhand -4.72905 -14.167 -0.196822
rfingers 7.12502 -0 0
rthumb 30.3658 -51.7746 0.0027091
515
root -5.47907 14.9983 -42.8936 366.113 -13.7357 347.368
lfemur -38.5757 31.3783 -11.4443
ltibia 69.9272 -0 0
lfoot -14.1775 19.4201 -0.104418
ltoes -6.31737 0 0
rfemur -20.9698 -22.7913 7.8421
rtibia 54.0487 0 0
rfoot 2.49154 -10.4557 -0.930388
rtoes 2.69467 -0 0
lowerback 16.8515 0.99102 -6.35541
upperback -1.94281 0.408355 3.63152
thorax -11.7776 0.771397 7.59144
lowerneck 3.21698 -12.0248 -16.9869
upperneck 5.79366 -17.5198 16.3117
head 4.15619 -8.85127 6.86891
lclavicle -1.27162e-14 -1.3841e-14 2.30601e-31
lhumerus -3.43512 -69.2755 93.4943
lradius 95.3663 -0 0
lwrist 24.2654 0 0
lhand -3.08059 35.9816 -0.000176024
lfingers 7.12502 -0 0
lthumb 12.0795 72.8896 -0.513539
rclavicle 4.88616e-15 -9.83267e-15 1.09967e-30
rhumerus 39.7187 47.0608 -36.3497
rradius 97.8793 -0 0
rwrist -25.4356 0 0
rhand -6.19472 -13.9974 -0.223356
rfingers 7.12502 -0 0
rthumb 30.3054 -51.8186 0.00125201
516
root -5.52744 14.9925 -42.9386 365.969 -17.002 347.851
lfemur -35.2498 29.7988 -9.8305
ltibia 69.4094 -0 0
lfoot -13.774 19.0644 -0.0621257
ltoes -8.26043 0 0
rfemur -21.6059 -22.7828 7.89019
rtibia 54.1331 -0 0
rfoot 1.76362 -8.7238 -0.963642
rtoes 1.53708 -0 0
lowerback 17.0552 1.1251 -6.07832
upperback -2.96802 0.566213 3.08526
thorax -13.0954 0.891584 6.79427
lowerneck 7.75129 -10.8352 -17.2266
upperneck 4.76131 -16.4932 16.7762
head 2.98587 -8.56608 7.50285
lclavicle -1.21936e-14 -1.44433e-14 1.92268e-31
lhumerus -9.81381 -67.3167 97.5369
lradius 96.4786 -0 0
lwrist 24.3261 0 0
lhand -3.07701 35.8934 -8.3174e-05
lfingers 7.12502 -0 0
lthumb 11.0819 73.6018 -0.475031
rclavicle 1.67708e-15 -9.08536e-15 1.28223e-30
rhumerus 36.8864 47.6239 -38.2717
rradius 95.1102 -0 0
rwrist -25.4851 0 0
rhand -7.73576 -13.8184 -0.246564
rfingers 7.12502 -0 0
rthumb 30.2679 -51.8459 0.000323345
517
root -5.56438 14.9838 -42.9696 365.739 -20.4158 348.512
lfemur -31.9811 28.1178 -8.32762
ltibia 68.909 -0 0
lfoot -13.4733 18.7994 -0.0289642
ltoes -10.149 0 0
rfemur -22.4644 -22.7705 7.95492
rtibia 54.3758 -0 0
rfoot 1.0275 -6.97369 -0.974884
rtoes 0.395599 -0 0
lowerback 17.1628 1.81538 -6.3374
upperback -2.07701 1.37001 2.54761
thorax -12.2522 1.19568 6.0889
lowerneck 3.57302 -11.4823 -14.553
upperneck 5.85213 -16.7271 15.556
head 3.70247 -8.44405 6.39662
lclavicle -1.17175e-14 -1.4992e-14 1.52562e-31
lhumerus -15.8711 -64.9965 101.004
lradius 97.4472 -0 0
lwrist 24.3756 0 0
lhand -3.07476 35.8378 -2.18435e-05
lfingers 7.12502 -0 0
lthumb 10.1251 74.2844 -0.426432
rclavicle -1.72538e-15 -8.29302e-15 1.43007e-30
rhumerus 34.3056 48.0719 -40.0409
rradius 92.1743 -0 0
rwrist -25.5351 0 0
rhand -9.33712 -13.6318 -0.26557
rfingers 7.12502 -0 0
rthumb 30.255 -51.8553 0
518
root -5.59782 14.9789 -42.9855 365.292 -24.1187 349.333
lfemur -28.7977 26.3572 -6.95083
ltibia 68.435 -0 0
lfoot -13.2855 18.6339 -0.00753078
ltoes -11.9612 0 0
rfemur -23.5264 -22.7541 8.0347
rtibia 54.761 -0 0
rfoot 0.29138 -5.22359 -0.963642
rtoes -0.713649 0 0
lowerback 17.3587 1.0274 -7.31868
upperback -1.66392 0.152858 3.03444
thorax -11.7129 0.675143 7.54645
lowerneck 1.03154 -10.1014 -15.85
upperneck 7.40685 -14.5961 14.7127
head 4.29006 -7.3161 6.35424
lclavicle -1.12951e-14 -1.54789e-14 1.13511e-31
lhumerus -21.5056 -62.3546 103.82
lradius 98.2461 -0 0
lwrist 24.4124 0 0
lhand -3.07398 35.8185 0
lfingers 7.12502 -0 0
lthumb 9.22077 74.9292 -0.369985
rclavicle -5.26596e-15 -7.46851e-15 1.53396e-30
rhumerus 32.0473 48.4147 -41.6014
rradius 89.1192 -0 0
rwrist -25.5846 0 0
rhand -10.9837 -13.4394 -0.279668
rfingers 7.12502 -0 0
rthumb 30.1263 -51.8551 -5.3365e-05
519
root -5.61849 14.9659 -42.9805 364.748 -27.6947 350.258
lfemur -25.7233 24.5411 -5.70953
ltibia 67.9957 -0 0
lfoot -13.2206 18.5767 0
ltoes -13.6752 0 0
rfemur -24.7735 -22.733 8.12796
rtibia 55.2728 -0 0
rfoot -0.436537 -3.49167 -0.930388
rtoes -1.77455 0 0
lowerback 17.5492 1.02771 -7.62181
upperback -1.61549 0.0424008 2.75606
thorax -11.7485 0.630808 7.43895
lowerneck 0.568364 -9.45193 -15.5858
upperneck 8.0301 -13.6658 14.2464
head 4.35488 -6.84418 6.2268
lclavicle -1.09334e-14 -1.58958e-14 7.7225e-32
lhumerus -26.6974 -59.4411 105.986
lradius 98.8489 -0 0
lwrist 24.4354 0 0
lhand -3.11789 35.8324 -0.00142744
lfingers 7.12502 -0 0
lthumb 8.38034 75.528 -0.308365
rclavicle -8.88941e-15 -6.62471e-15 1.58753e-30
rhumerus 30.1802 48.6641 -42.899
rradius 85.9926 -0 0
rwrist -25.6327 0 0
rhand -12.6605 -13.2432 -0.288337
rfingers 7.12502 -0 0
rthumb 29.7533 -51.8546 -0.000205667
520
root -5.63871 14.9465 -42.9642 364.179 -31.2884 351.047
lfemur -22.7774 22.6955 -4.608
ltibia 67.6001 -0 0
lfoot -13.2681 18.6408 -0.00402319
ltoes -15.2693 0 0
rfemur -26.187 -22.707 8.23303
rtibia 55.8954 -0 0
rfoot -1.14812 -1.79608 -0.876517
rtoes -2.77099 0 0
lowerback 17.6574 1.0396 -7.70161
upperback -1.4782 0.00630625 2.51075
thorax -11.6462 0.597686 7.21459
lowerneck 0.111168 -8.95067 -15.6426
upperneck 8.66333 -12.964 14.0738
head 4.50486 -6.48811 6.21997
lclavicle -1.06396e-14 -1.62343e-14 4.58175e-32
lhumerus -31.4728 -56.3111 107.553
lradius 99.2297 -0 0
lwrist 24.4434 0 0
lhand -3.24534 35.8728 -0.00551004
lfingers 7.12502 -0 0
lthumb 7.61526 76.0727 -0.244588
rclavicle -1.25405e-14 -5.77447e-15 1.58753e-30
rhumerus 28.7711 48.8324 -43.8823
rradius 82.8421 -0 0
rwrist -25.6786 0 0
rhand -14.3523 -13.0451 -0.291262
rfingers 7.12502 0 0
rthumb 29.1553 -51.8537 -0.000442447
521
root -5.66061 14.9285 -42.9283 363.49 -34.9008 351.886
lfemur -19.9768 20.8476 -3.64611
ltibia 67.2569 -0 0
lfoot -13.4046 18.8245 -0.0152698
ltoes -16.7216 0 0
rfemur -27.7482 -22.6754 8.34823
rtibia 56.6132 -0 0
rfoot -1.83537 -0.154922 -0.804313
rtoes -3.68695 0 0
lowerback 17.7347 1.28883 -7.55443
upperback -1.27775 0.322119 2.11419
thorax -11.5132 0.705614 6.58918
lowerneck -0.28514 -8.93848 -15.6153
upperneck 9.29227 -12.955 14.0029
head 4.75326 -6.47002 6.17033
lclavicle -1.04209e-14 -1.64864e-14 2.131e-32
lhumerus -35.8788 -53.0204 108.588
lradius 99.3625 0 0
lwrist 24.5753 0 0
lhand -3.44991 35.9376 -0.0118748
lfingers 7.12502 -0 0
lthumb 6.93684 76.5554 -0.181905
rclavicle -1.61639e-14 -4.93066e-15 1.53396e-30
rhumerus 27.8826 48.9298 -44.5039
rradius 79.7155 -0 0
rwrist -25.7213 0 0
rhand -16.0441 -12.847 -0.288337
rfingers 7.12502 -0 0
rthumb 28.3522 -51.8525 -0.000746172
522
root -5.68634 14.9003 -42.8788 362.841 -38.4573 352.683
lfemur -17.3363 19.025 -2.82003
ltibia 66.9748 -0 0
lfoot -13.6206 19.1155 -0.0321764
ltoes -18.0103 0 0
rfemur -29.4385 -22.6379 8.47187
rtibia 57.41 -0 0
rfoot -2.49048 1.41381 -0.716872
rtoes -4.5061 0 0
lowerback 17.7402 1.32285 -7.62341
upperback -1.17648 0.332664 1.934
thorax -11.4016 0.698138 6.42076
lowerneck -0.477116 -8.87552 -15.9511
upperneck 10.0109 -12.9008 13.921
head 5.01209 -6.45203 6.1889
lclavicle -1.02845e-14 -1.66436e-14 5.53048e-33
lhumerus -39.966 -49.6245 109.166
lradius 99.4026 -0 0
lwrist 24.9588 0 0
lhand -3.72517 36.0249 -0.0200732
lfingers 7.12502 -0 0
lthumb 6.35654 76.9679 -0.123712
rclavicle -1.97045e-14 -4.10615e-15 1.43007e-30
rhumerus 27.574 48.9621 -44.7201
rradius 76.6604 -0 0
rwrist -25.7599 0 0
rhand -17.7209 -12.6508 -0.279668
rfingers 7.12502 -0 0
rthumb 27.3631 -51.8511 -0.00109759
